# xmcd
#
# Track frame offsets: 
#        150
#        18702
#        38708
#        57722
#        77507
#        99179
#        120543
#        139145
#        166026
#        185616
#        203285
#        228670
#        251689
#        275817
#        292642
#        315465
#
# Disc length: 4459 seconds
#
# Revision: 1
# Processed by: cddbd v1.5.2PL0 Copyright (c) Steve Scherf et al.
# Submitted via: ExactAudioCopy v0.99pb5
#
DISCID=d5116910
DTITLE=Broery Marantika - Memories Hits (Vol.1)
DYEAR=1900
DGENRE=
TTITLE0=Selamat Tinggal
TTITLE1=Angin Malam
TTITLE2=Senandung Rindu
TTITLE3=Aku Jatuh Cinta
TTITLE4=Layu Sebelum Berkembang
TTITLE5=Biarlah Sendiri
TTITLE6=Jangan Ada Dusta Di Antara Kita
TTITLE7=Ayah
TTITLE8=Kaulah Segalanya
TTITLE9=Balada Seorang Minta-Minta
TTITLE10=Kemesraan
TTITLE11=Mimpi Sedih
TTITLE12=Biarlah Bulan Bicara
TTITLE13=Kerinduaan
TTITLE14=Juwita
TTITLE15=Segalaku Untukmu
EXTD=broery marantika
EXTT0=
EXTT1=
EXTT2=
EXTT3=
EXTT4=
EXTT5=
EXTT6=
EXTT7=
EXTT8=
EXTT9=
EXTT10=
EXTT11=
EXTT12=
EXTT13=
EXTT14=
EXTT15=
PLAYORDER=
